<svg width="16" height="16" viewBox="0 0 16 16" fill="none" xmlns="http://www.w3.org/2000/svg">
<path d="M12.6668 7.16658H11.3335C9.72016 7.16658 8.8335 6.27992 8.8335 4.66658V3.33325C8.8335 1.71992 9.72016 0.833252 11.3335 0.833252H12.6668C14.2802 0.833252 15.1668 1.71992 15.1668 3.33325V4.66658C15.1668 6.27992 14.2802 7.16658 12.6668 7.16658ZM11.3335 1.83325C10.2802 1.83325 9.8335 2.27992 9.8335 3.33325V4.66658C9.8335 5.71992 10.2802 6.16658 11.3335 6.16658H12.6668C13.7202 6.16658 14.1668 5.71992 14.1668 4.66658V3.33325C14.1668 2.27992 13.7202 1.83325 12.6668 1.83325H11.3335Z" fill="#292D32"/>
<path d="M4.66683 15.1666H3.3335C1.72016 15.1666 0.833496 14.2799 0.833496 12.6666V11.3333C0.833496 9.71992 1.72016 8.83325 3.3335 8.83325H4.66683C6.28016 8.83325 7.16683 9.71992 7.16683 11.3333V12.6666C7.16683 14.2799 6.28016 15.1666 4.66683 15.1666ZM3.3335 9.83325C2.28016 9.83325 1.8335 10.2799 1.8335 11.3333V12.6666C1.8335 13.7199 2.28016 14.1666 3.3335 14.1666H4.66683C5.72016 14.1666 6.16683 13.7199 6.16683 12.6666V11.3333C6.16683 10.2799 5.72016 9.83325 4.66683 9.83325H3.3335Z" fill="#292D32"/>
<path d="M4.00016 7.16658C2.2535 7.16658 0.833496 5.74658 0.833496 3.99992C0.833496 2.25325 2.2535 0.833252 4.00016 0.833252C5.74683 0.833252 7.16683 2.25325 7.16683 3.99992C7.16683 5.74658 5.74683 7.16658 4.00016 7.16658ZM4.00016 1.83325C2.80683 1.83325 1.8335 2.80659 1.8335 3.99992C1.8335 5.19325 2.80683 6.16658 4.00016 6.16658C5.1935 6.16658 6.16683 5.19325 6.16683 3.99992C6.16683 2.80659 5.1935 1.83325 4.00016 1.83325Z" fill="#292D32"/>
<path d="M12.0002 15.1666C10.2535 15.1666 8.8335 13.7466 8.8335 11.9999C8.8335 10.2533 10.2535 8.83325 12.0002 8.83325C13.7468 8.83325 15.1668 10.2533 15.1668 11.9999C15.1668 13.7466 13.7468 15.1666 12.0002 15.1666ZM12.0002 9.83325C10.8068 9.83325 9.8335 10.8066 9.8335 11.9999C9.8335 13.1933 10.8068 14.1666 12.0002 14.1666C13.1935 14.1666 14.1668 13.1933 14.1668 11.9999C14.1668 10.8066 13.1935 9.83325 12.0002 9.83325Z" fill="#292D32"/>
</svg>
