<svg width="16" height="16" viewBox="0 0 16 16" fill="none" xmlns="http://www.w3.org/2000/svg">
<path d="M14.5001 9.50007V13.6251C14.5001 13.7245 14.4606 13.8199 14.3903 13.8902C14.3199 13.9606 14.2246 14.0001 14.1251 14.0001H10.0001C9.06933 14.0003 8.1614 13.7119 7.40137 13.1746C6.64133 12.6373 6.0666 11.8776 5.75635 11.0001H6.0001C7.19357 11.0001 8.33816 10.526 9.18208 9.68205C10.026 8.83813 10.5001 7.69354 10.5001 6.50007C10.5004 5.99175 10.4144 5.48708 10.2457 5.00757C11.3948 5.07038 12.4762 5.57106 13.2675 6.40665C14.0588 7.24225 14.4999 8.34925 14.5001 9.50007Z" fill="black" fill-opacity="0.04"/>
<path d="M10.5981 4.537C10.1456 3.47759 9.34119 2.60694 8.32081 2.07223C7.30043 1.53752 6.12671 1.37156 4.99808 1.6024C3.86945 1.83324 2.85516 2.44672 2.12667 3.33913C1.39818 4.23154 1.0002 5.34813 1 6.50012V10.6251C1 10.8572 1.09219 11.0797 1.25628 11.2438C1.42038 11.4079 1.64294 11.5001 1.875 11.5001H5.41687C5.80705 12.3912 6.44821 13.1493 7.26207 13.682C8.07593 14.2148 9.02729 14.499 10 14.5001H14.125C14.3571 14.5001 14.5796 14.4079 14.7437 14.2438C14.9078 14.0797 15 13.8572 15 13.6251V9.50012C14.9998 8.27779 14.5518 7.09788 13.7407 6.1834C12.9296 5.26892 11.8117 4.68322 10.5981 4.537ZM2 6.50012C2 5.709 2.2346 4.93564 2.67412 4.27784C3.11365 3.62004 3.73836 3.10735 4.46927 2.8046C5.20017 2.50185 6.00444 2.42264 6.78036 2.57698C7.55629 2.73132 8.26902 3.11228 8.82843 3.67169C9.38784 4.2311 9.7688 4.94384 9.92314 5.71976C10.0775 6.49568 9.99827 7.29995 9.69552 8.03086C9.39277 8.76176 8.88008 9.38647 8.22228 9.826C7.56448 10.2655 6.79113 10.5001 6 10.5001H2V6.50012ZM14 13.5001H10C9.2927 13.4993 8.5982 13.3114 7.987 12.9554C7.37581 12.5994 6.86968 12.0881 6.52 11.4732C7.20482 11.4022 7.86756 11.1903 8.46663 10.851C9.06569 10.5116 9.58813 10.0521 10.0012 9.50127C10.4142 8.95043 10.7089 8.32015 10.8668 7.65C11.0247 6.97985 11.0424 6.2843 10.9187 5.607C11.7958 5.81398 12.5773 6.31104 13.1365 7.01764C13.6957 7.72425 14 8.59899 14 9.50012V13.5001Z" fill="black"/>
</svg>
